HIERARCHY
ROOT Hips
{
 OFFSET 0.000000 0.000000 0.000000
 CHANNELS 6 Xposition Yposition Zposition Yrotation Xrotation Zrotation
 JOINT Chest
 {
  OFFSET 0.000000 9.581000 -0.001100
  CHANNELS 3 Yrotation Xrotation Zrotation
  JOINT Chest2
  {
   OFFSET 0.000000 9.561100 0.002200
   CHANNELS 3 Yrotation Xrotation Zrotation
   JOINT Chest3
   {
    OFFSET 0.000000 9.521100 0.000000
    CHANNELS 3 Yrotation Xrotation Zrotation
    JOINT Chest4
    {
     OFFSET 0.000000 9.511400 0.000000
     CHANNELS 3 Yrotation Xrotation Zrotation
     JOINT Neck
     {
      OFFSET 0.000000 14.375100 0.000000
      CHANNELS 3 Yrotation Xrotation Zrotation
      JOINT Head
      {
       OFFSET 0.000000 8.901200 0.004600
       CHANNELS 3 Yrotation Xrotation Zrotation
       End Site
       {
        OFFSET 0.000000 16.962200 0.002400
       }
      }
     }
     JOINT RightCollar
     {
      OFFSET -2.920100 9.518800 0.000000
      CHANNELS 3 Yrotation Xrotation Zrotation
      JOINT RightShoulder
      {
       OFFSET -13.664500 0.000000 0.000000
       CHANNELS 3 Yrotation Xrotation Zrotation
       JOINT RightElbow
       {
        OFFSET 0.000000 -29.999200 0.000000
        CHANNELS 3 Yrotation Xrotation Zrotation
        JOINT RightWrist
        {
         OFFSET 0.000000 -24.253600 0.000000
         CHANNELS 3 Yrotation Xrotation Zrotation
         End Site
         {
          OFFSET 0.000000 -17.918900 0.000000
         }
        }
       }
      }
     }
     JOINT LeftCollar
     {
      OFFSET 2.920100 9.518800 0.000000
      CHANNELS 3 Yrotation Xrotation Zrotation
      JOINT LeftShoulder
      {
       OFFSET 13.664500 0.000000 0.000000
       CHANNELS 3 Yrotation Xrotation Zrotation
       JOINT LeftElbow
       {
        OFFSET 0.000000 -29.999200 0.000000
        CHANNELS 3 Yrotation Xrotation Zrotation
        JOINT LeftWrist
        {
         OFFSET 0.000000 -24.253600 0.000000
         CHANNELS 3 Yrotation Xrotation Zrotation
         End Site
         {
          OFFSET 0.000000 -17.918900 0.000000
         }
        }
       }
      }
     }
    }
   }
  }
 }
 JOINT RightHip
 {
  OFFSET -7.797300 0.005300 0.000500
  CHANNELS 3 Yrotation Xrotation Zrotation
  JOINT RightKnee
  {
   OFFSET 0.000000 -40.663400 -0.000500
   CHANNELS 3 Yrotation Xrotation Zrotation
   JOINT RightAnkle
   {
    OFFSET 0.000000 -39.523700 -0.000900
    CHANNELS 3 Yrotation Xrotation Zrotation
    JOINT RightToe
    {
     OFFSET 0.000000 -6.418000 14.485300
     CHANNELS 3 Yrotation Xrotation Zrotation
     End Site
     {
      OFFSET 0.000000 -1.465200 6.326400
     }
    }
   }
  }
 }
 JOINT LeftHip
 {
  OFFSET 7.797300 0.005300 0.000500
  CHANNELS 3 Yrotation Xrotation Zrotation
  JOINT LeftKnee
  {
   OFFSET 0.000000 -40.663400 -0.000500
   CHANNELS 3 Yrotation Xrotation Zrotation
   JOINT LeftAnkle
   {
    OFFSET 0.000000 -39.523700 -0.000900
    CHANNELS 3 Yrotation Xrotation Zrotation
    JOINT LeftToe
    {
     OFFSET 0.000000 -6.418000 14.485300
     CHANNELS 3 Yrotation Xrotation Zrotation
     End Site
     {
      OFFSET 0.000000 -1.465200 6.326400
     }
    }
   }
  }
 }
}
MOTION
Frames: 5
Frame Time: 0.008333
0.000000 86.422400 0.000000 0.000000 -5.767877 0.000000 0.000000 11.653817 0.000000 0.000000 -5.885947 0.000000 0.000000 -0.000000 0.000000 0.000000 -0.000000 0.000000 0.000000 12.528835 0.000000 0.000000 0.711642 0.000000 0.000000 -0.000000 0.000000 0.000000 0.000000 -90.000000 0.000000 -2.309062 0.000000 0.000000 2.309062 0.000000 0.000000 -0.000000 0.000000 0.000000 -0.000000 90.000000 0.000000 -2.309062 0.000000 0.000000 2.309062 0.000000 0.000000 8.520406 0.000000 0.000000 1.905762 0.000000 -0.000000 -4.658285 0.000000 0.000000 -0.000000 0.000000 0.000000 8.520406 0.000000 0.000000 1.905762 0.000000 -0.000000 -4.658285 0.000000 0.000000 -0.000000 0.000000
-12.716202 126.889533 -4.353251 -170.979993 -46.446416 -4.637270 0.161010 25.825043 2.254384 -0.044928 4.237075 0.355797 -0.062801 6.790687 0.592245 0.043886 21.253165 1.816070 5.659414 15.602507 0.561766 5.921385 -9.240878 -0.726767 1.497729 3.173399 3.488172 -7.101920 -20.449464 -5.027623 -75.560792 -30.234134 131.035694 -25.481376 -31.120805 -21.975041 -8.848829 -1.066794 1.227997 -10.430347 -11.413828 9.081003 66.394765 -55.067540 -112.744065 -3.265920 -5.053909 -15.114033 -10.459346 -11.880229 -10.005985 -167.061448 75.168005 -171.199156 22.563171 22.631785 -7.060581 0.003418 0.001780 0.001515 12.391054 -14.650007 -7.927188 6.929642 69.786011 -6.450883 2.999797 -10.013543 14.308561 0.002308 0.001762 0.001023
-12.716132 126.889640 -4.353338 -170.981590 -46.444992 -4.637057 0.153297 25.864333 2.285324 -0.041638 4.223577 0.342367 -0.065508 6.802888 0.596773 0.041493 21.279632 1.840009 5.609628 15.465967 0.478173 5.887294 -9.375536 -0.793280 1.478630 3.210512 3.512270 -7.078019 -20.450697 -5.065221 -75.477670 -30.206747 131.027052 -25.483106 -31.080063 -21.908689 -8.851840 -1.112845 1.198094 -10.425816 -11.381044 9.056606 66.454789 -55.096061 -112.810073 -3.215243 -5.029466 -15.104639 -10.464659 -11.887240 -10.015154 -167.063044 75.167715 -171.204693 22.575011 22.631744 -7.047571 0.003573 0.000583 0.001583 12.392257 -14.648597 -7.926915 6.935415 69.779827 -6.444475 2.997485 -10.013833 14.303565 0.002270 0.002187 0.001006
-12.716292 126.889770 -4.353539 -170.981273 -46.442530 -4.637090 0.150672 25.883301 2.300660 -0.047962 4.259044 0.365215 -0.063756 6.784420 0.581315 0.039059 21.305601 1.863978 5.560569 15.317975 0.390932 5.853861 -9.521618 -0.863185 1.465354 3.225009 3.516390 -7.068219 -20.418701 -5.081514 -75.395834 -30.181276 131.020993 -25.494024 -31.021046 -21.793373 -8.850926 -1.087093 1.188022 -10.423086 -11.414710 9.032808 66.372408 -55.053057 -112.749223 -3.293702 -5.071246 -15.113656 -10.478456 -11.895935 -10.025738 -167.087864 75.169330 -171.239254 22.579878 22.634003 -7.041584 0.002388 0.000975 0.001058 12.393358 -14.647786 -7.927333 6.925718 69.776140 -6.454481 2.998037 -10.017331 14.299898 0.001398 0.002391 0.000620
-12.716179 126.889924 -4.353928 -170.979357 -46.438580 -4.639856 0.152047 25.901295 2.317678 -0.048200 4.265499 0.368299 -0.063954 6.794062 0.586125 0.040316 21.317243 1.878047 5.511587 15.168562 0.314127 5.817760 -9.682359 -0.934177 1.451709 3.207451 3.503766 -7.075802 -20.326737 -5.068599 -75.318998 -30.157964 131.027385 -25.508661 -30.942905 -21.623751 -8.854484 -1.073920 1.183538 -10.425901 -11.450310 9.020195 66.272859 -55.018914 -112.666905 -3.339401 -5.107154 -15.121259 -10.482881 -11.901932 -10.027234 -167.079864 75.172676 -171.234863 22.586541 22.638142 -7.036134 0.001886 0.000957 0.000836 12.394169 -14.648546 -7.925513 6.931816 69.771957 -6.451356 2.992118 -10.018999 14.301011 0.000081 0.002147 0.000036
